<svg viewBox="0 0 480 480" xmlns="http://www.w3.org/2000/svg"><path d="m454.67 194.87a64 64 0 1 0 -80.86-2.87h-42.5l-53.65-53.66a8 8 0 0 0 -11.32 0l-32 32a8 8 0 0 0 0 11.32l72 72a8 8 0 0 0 5.66 2.34h64v56h-137.06l39.72-59.56-13.32-8.87-45.62 68.43h-19.72v-40a8 8 0 0 0 -8-8h-64v-32a40 40 0 0 0 -25.33-37.13 64 64 0 1 0 -77.34 0 40 40 0 0 0 -25.33 37.13v112a40 40 0 0 0 40 40v96h16v-96h56v88a8 8 0 0 0 8 8h56a8 8 0 0 0 8-8v-120a39.74 39.74 0 0 0 -8-24h56v136h-32v16h80v-16h-32v-136h56.21a39.58 39.58 0 0 0 -8.21 24v120a8 8 0 0 0 8 8h56a8 8 0 0 0 8-8v-88h56v96h16v-96a40 40 0 0 0 40-40v-112a40 40 0 0 0 -25.33-37.13zm-438.67-50.87a48 48 0 1 1 48 48 48.05 48.05 0 0 1 -48-48zm168 168h-104v-64h-16v72a8 8 0 0 0 8 8h72a24 24 0 0 1 24 24v112h-40v-88a8 8 0 0 0 -8-8h-80a24 24 0 0 1 -24-24v-112a24 24 0 0 1 24-24h48a24 24 0 0 1 24 24v40a8 8 0 0 0 8 8h64zm184-168a48 48 0 1 1 48 48 48.05 48.05 0 0 1 -48-48zm96 200a24 24 0 0 1 -24 24h-80a8 8 0 0 0 -8 8v88h-40v-112a24 24 0 0 1 24-24h48a8 8 0 0 0 8-8v-72a8 8 0 0 0 -8-8h-68.69l-64-64 20.69-20.69 50.34 50.35a8 8 0 0 0 5.66 2.34h112a24 24 0 0 1 24 24z"/><path d="m320 0h-160a24 24 0 0 0 -24 24v64a24 24 0 0 0 24 24h8v48a8 8 0 0 0 4.94 7.39 7.81 7.81 0 0 0 3.06.61 8 8 0 0 0 5.66-2.34l53.65-53.66h84.69a24 24 0 0 0 24-24v-64a24 24 0 0 0 -24-24zm8 88a8 8 0 0 1 -8 8h-88a8 8 0 0 0 -5.66 2.34l-42.34 42.35v-36.69a8 8 0 0 0 -8-8h-16a8 8 0 0 1 -8-8v-64a8 8 0 0 1 8-8h160a8 8 0 0 1 8 8z"/><path d="m168 32h48v16h-48z"/><path d="m168 64h144v16h-144z"/><path d="m232 32h80v16h-80z"/></svg>