<svg viewBox="0 0 208 168" xmlns="http://www.w3.org/2000/svg"><path d="m0 24v64a24 24 0 0 0 24 24h84.69l53.65 53.66a8 8 0 0 0 5.66 2.34 7.85 7.85 0 0 0 3.06-.61 8 8 0 0 0 4.94-7.39v-48h8a24 24 0 0 0 24-24v-64a24 24 0 0 0 -24-24h-160a24 24 0 0 0 -24 24zm16 0a8 8 0 0 1 8-8h160a8 8 0 0 1 8 8v64a8 8 0 0 1 -8 8h-16a8 8 0 0 0 -8 8v36.69l-42.34-42.35a8 8 0 0 0 -5.66-2.34h-88a8 8 0 0 1 -8-8z"/><path d="m128 32h48v16h-48z"/><path d="m32 64h51.88v16h-51.88z"/><path d="m32 32h80v16h-80z"/><path d="m94.24 64h81.76v16h-81.76z"/></svg>