<svg viewBox="0 0 480.01 400.13" xmlns="http://www.w3.org/2000/svg"><path d="m454.67 115a64 64 0 1 0 -80.86-2.87h-42.5l-53.65-53.66a8 8 0 0 0 -11.31 0l-32 32a8 8 0 0 0 0 11.31l72 72a8 8 0 0 0 5.66 2.34h64v56h-137.07l39.72-59.56-13.32-8.87-45.62 68.43h-19.72v-40a8 8 0 0 0 -8-8h-64v-32a40 40 0 0 0 -25.33-37.12 64 64 0 1 0 -77.34 0 40 40 0 0 0 -25.33 37.13v112a40 40 0 0 0 40 40v96h16v-96h56v88a8 8 0 0 0 8 8h56a8 8 0 0 0 8-8v-120a39.72 39.72 0 0 0 -8-24h56v136h-32v16h80v-16h-32v-136h56.21a39.62 39.62 0 0 0 -8.21 24v120a8 8 0 0 0 8 8h56a8 8 0 0 0 8-8v-88h56v96h16v-96a40 40 0 0 0 40-40v-112a40 40 0 0 0 -25.33-37.13zm-438.67-50.87a48 48 0 1 1 48 48 48 48 0 0 1 -48-48zm168 168h-104v-64h-16v72a8 8 0 0 0 8 8h72a24 24 0 0 1 24 24v112h-40v-88a8 8 0 0 0 -8-8h-80a24 24 0 0 1 -24-24v-112a24 24 0 0 1 24-24h48a24 24 0 0 1 24 24v40a8 8 0 0 0 8 8h64zm184-168a48 48 0 1 1 48 48 48 48 0 0 1 -48-48zm96 200a24 24 0 0 1 -24 24h-80a8 8 0 0 0 -8 8v88h-40v-112a24 24 0 0 1 24-24h48a8 8 0 0 0 8-8v-72a8 8 0 0 0 -8-8h-68.69l-64-64 20.69-20.69 50.34 50.35a8 8 0 0 0 5.66 2.34h112a24 24 0 0 1 24 24z"/></svg>